<svg xmlns="http://www.w3.org/2000/svg" viewBox="0 0 1200 570" font-family="ui-sans-serif,-apple-system,'Segoe UI',Roboto,Helvetica,Arial,sans-serif" role="img" aria-labelledby="title description"><title id="title">Throttled cold phone First Contentful Paint</title><desc id="description">Main-perf medians from the selected throttled snapshot. All selected cases have valid measurements.</desc><rect width="1200" height="570" fill="#fcfcfb"/><text x="56" y="58" font-size="24" font-weight="650" fill="#0b0b0b">Cold first paint on a throttled phone</text><text x="56" y="86" font-size="14" fill="#52514e">18 paired samples · 100 ms RTT · 2.7/2.7 Mbps down/up · 200 ms latency · 3× CPU</text><rect x="56" y="108" width="12" height="12" rx="3" fill="#2a78d6"/><text x="74" y="119" font-size="13" fill="#52514e">Client-rendered Inertia control</text><rect x="272" y="108" width="12" height="12" rx="3" fill="#eb6834"/><text x="290" y="119" font-size="13" fill="#52514e">React on Rails Pro / RSC</text><text x="294" y="185" font-size="14" fill="#0b0b0b" text-anchor="end">Profile-layout Product</text><rect x="310" y="158" width="800" height="22" rx="4" fill="#2a78d6"/><text x="1118" y="174" font-size="13" fill="#0b0b0b">18.67s</text><rect x="310" y="184" width="84.39993573608955" height="22" rx="4" fill="#eb6834"/><text x="402.39993573608956" y="200" font-size="13" fill="#0b0b0b">1.97s</text><text x="294" y="263" font-size="14" fill="#0b0b0b" text-anchor="end">Discover-layout Product</text><rect x="310" y="236" width="741.8625823381353" height="22" rx="4" fill="#2a78d6"/><text x="1059.8625823381353" y="252" font-size="13" fill="#0b0b0b">17.32s</text><rect x="310" y="262" width="71.11872757457292" height="22" rx="4" fill="#eb6834"/><text x="389.1187275745729" y="278" font-size="13" fill="#0b0b0b">1.66s</text><text x="294" y="341" font-size="14" fill="#0b0b0b" text-anchor="end">Seller Profile</text><rect x="310" y="314" width="487.37749692068763" height="22" rx="4" fill="#2a78d6"/><text x="805.3774969206877" y="330" font-size="13" fill="#0b0b0b">11.38s</text><rect x="310" y="340" width="49.78310930220104" height="22" rx="4" fill="#eb6834"/><text x="367.78310930220107" y="356" font-size="13" fill="#0b0b0b">1.16s</text><text x="294" y="419" font-size="14" fill="#0b0b0b" text-anchor="end">Discover category</text><rect x="310" y="392" width="329.5453328335029" height="22" rx="4" fill="#2a78d6"/><text x="647.5453328335029" y="408" font-size="13" fill="#0b0b0b">7.69s</text><rect x="310" y="418" width="55.00990735286242" height="22" rx="4" fill="#eb6834"/><text x="373.0099073528624" y="434" font-size="13" fill="#0b0b0b">1.28s</text><text x="294" y="497" font-size="14" fill="#0b0b0b" text-anchor="end">Discover marketplace</text><rect x="310" y="470" width="304.01113907781286" height="22" rx="4" fill="#2a78d6"/><text x="622.0111390778129" y="486" font-size="13" fill="#0b0b0b">7.10s</text><rect x="310" y="496" width="57.237722915439406" height="22" rx="4" fill="#eb6834"/><text x="375.2377229154394" y="512" font-size="13" fill="#0b0b0b">1.34s</text><line x1="310" y1="146" x2="310" y2="548" stroke="#d8d7d3"/></svg>