<svg xmlns="http://www.w3.org/2000/svg" font-family="Arial,Helvetica,sans-serif" viewBox="0 0 1200 720"><desc>React on Rails Pro vs Inertia · left = reduction · right = increase</desc><path fill="#fbfcfe" d="M0 0h1200v720H0z"/><text x="44" y="48" fill="#172b3a" font-size="29" font-weight="700">Gumroad requests, downloads and response time: percentage changes</text><text x="44" y="80" fill="#586b79" font-size="16" font-weight="400">React on Rails Pro vs Inertia · left = reduction · right = increase</text><text x="44" y="163" fill="#586b79" font-size="16" font-weight="400">Page</text><text x="315" y="129" fill="#172b3a" font-size="19" font-weight="600">Total requests</text><path stroke="#dfe6eb" stroke-linecap="round" d="M315 183v427"/><text x="315" y="171" fill="#586b79" font-size="13" font-weight="400" text-anchor="middle">-100%</text><path stroke="#dfe6eb" stroke-linecap="round" d="M360 183v427"/><text x="360" y="171" fill="#586b79" font-size="13" font-weight="400" text-anchor="middle">-50%</text><path stroke="#dfe6eb" stroke-linecap="round" d="M405 183v427"/><text x="405" y="171" fill="#586b79" font-size="13" font-weight="400" text-anchor="middle">0%</text><path stroke="#dfe6eb" stroke-linecap="round" d="M450 183v427"/><text x="450" y="171" fill="#586b79" font-size="13" font-weight="400" text-anchor="middle">50%</text><path stroke="#dfe6eb" stroke-linecap="round" d="M495 183v427"/><text x="495" y="171" fill="#586b79" font-size="13" font-weight="400" text-anchor="middle">100%</text><path stroke="#dfe6eb" stroke-linecap="round" d="M540 183v427"/><text x="540" y="171" fill="#586b79" font-size="13" font-weight="400" text-anchor="middle">150%</text><path stroke="#586b79" stroke-linecap="round" stroke-width="2" d="M405 185v425"/><path stroke="#b9d9cc" stroke-linecap="round" stroke-width="7" d="M405 246h-17.234"/><circle cx="387.766" cy="246" r="7" fill="#15805d" stroke="#15805d" stroke-width="2"/><text x="387.766" y="230" fill="#15805d" font-size="15" font-weight="600" text-anchor="middle">-19.1%</text><path stroke="#b9d9cc" stroke-linecap="round" stroke-width="7" d="M405 324h-18.202"/><circle cx="386.798" cy="324" r="7" fill="#15805d" stroke="#15805d" stroke-width="2"/><text x="386.798" y="308" fill="#15805d" font-size="15" font-weight="600" text-anchor="middle">-20.2%</text><path stroke="#b9d9cc" stroke-linecap="round" stroke-width="7" d="M405 402h-30.724"/><circle cx="374.276" cy="402" r="7" fill="#15805d" stroke="#15805d" stroke-width="2"/><text x="374.276" y="386" fill="#15805d" font-size="15" font-weight="600" text-anchor="middle">-34.1%</text><path stroke="#b9d9cc" stroke-linecap="round" stroke-width="7" d="M405 480h-32.449"/><circle cx="372.551" cy="480" r="7" fill="#15805d" stroke="#15805d" stroke-width="2"/><text x="372.551" y="464" fill="#15805d" font-size="15" font-weight="600" text-anchor="middle">-36.1%</text><path stroke="#b9d9cc" stroke-linecap="round" stroke-width="7" d="M405 558h-52.555"/><circle cx="352.445" cy="558" r="7" fill="#15805d" stroke="#15805d" stroke-width="2"/><text x="352.445" y="542" fill="#15805d" font-size="15" font-weight="600" text-anchor="middle">-58.4%</text><text x="600" y="129" fill="#172b3a" font-size="19" font-weight="600">Total bytes</text><path stroke="#dfe6eb" stroke-linecap="round" d="M600 183v427"/><text x="600" y="171" fill="#586b79" font-size="13" font-weight="400" text-anchor="middle">-100%</text><path stroke="#dfe6eb" stroke-linecap="round" d="M645 183v427"/><text x="645" y="171" fill="#586b79" font-size="13" font-weight="400" text-anchor="middle">-50%</text><path stroke="#dfe6eb" stroke-linecap="round" d="M690 183v427"/><text x="690" y="171" fill="#586b79" font-size="13" font-weight="400" text-anchor="middle">0%</text><path stroke="#dfe6eb" stroke-linecap="round" d="M735 183v427"/><text x="735" y="171" fill="#586b79" font-size="13" font-weight="400" text-anchor="middle">50%</text><path stroke="#dfe6eb" stroke-linecap="round" d="M780 183v427"/><text x="780" y="171" fill="#586b79" font-size="13" font-weight="400" text-anchor="middle">100%</text><path stroke="#dfe6eb" stroke-linecap="round" d="M825 183v427"/><text x="825" y="171" fill="#586b79" font-size="13" font-weight="400" text-anchor="middle">150%</text><path stroke="#586b79" stroke-linecap="round" stroke-width="2" d="M690 185v425"/><path stroke="#ecc8ca" stroke-linecap="round" stroke-width="7" d="M690 246h10.556"/><circle cx="700.556" cy="246" r="7" fill="#c94c50" stroke="#c94c50" stroke-width="2"/><text x="700.556" y="230" fill="#c94c50" font-size="15" font-weight="600" text-anchor="middle">+11.7%</text><path stroke="#ecc8ca" stroke-linecap="round" stroke-width="7" d="M690 324h11.499"/><circle cx="701.499" cy="324" r="7" fill="#c94c50" stroke="#c94c50" stroke-width="2"/><text x="701.499" y="308" fill="#c94c50" font-size="15" font-weight="600" text-anchor="middle">+12.8%</text><path stroke="#b9d9cc" stroke-linecap="round" stroke-width="7" d="M690 402h-15.82"/><circle cx="674.18" cy="402" r="7" fill="#15805d" stroke="#15805d" stroke-width="2"/><text x="674.18" y="386" fill="#15805d" font-size="15" font-weight="600" text-anchor="middle">-17.6%</text><path stroke="#b9d9cc" stroke-linecap="round" stroke-width="7" d="M690 480h-17.92"/><circle cx="672.08" cy="480" r="7" fill="#15805d" stroke="#15805d" stroke-width="2"/><text x="672.08" y="464" fill="#15805d" font-size="15" font-weight="600" text-anchor="middle">-19.9%</text><path stroke="#b9d9cc" stroke-linecap="round" stroke-width="7" d="M690 558h-35.23"/><circle cx="654.77" cy="558" r="7" fill="#15805d" stroke="#15805d" stroke-width="2"/><text x="654.77" y="542" fill="#15805d" font-size="15" font-weight="600" text-anchor="middle">-39.1%</text><text x="885" y="129" fill="#172b3a" font-size="19" font-weight="600">First byte (TTFB)</text><path stroke="#dfe6eb" stroke-linecap="round" d="M885 183v427"/><text x="885" y="171" fill="#586b79" font-size="13" font-weight="400" text-anchor="middle">-100%</text><path stroke="#dfe6eb" stroke-linecap="round" d="M930 183v427"/><text x="930" y="171" fill="#586b79" font-size="13" font-weight="400" text-anchor="middle">-50%</text><path stroke="#dfe6eb" stroke-linecap="round" d="M975 183v427"/><text x="975" y="171" fill="#586b79" font-size="13" font-weight="400" text-anchor="middle">0%</text><path stroke="#dfe6eb" stroke-linecap="round" d="M1020 183v427"/><text x="1020" y="171" fill="#586b79" font-size="13" font-weight="400" text-anchor="middle">50%</text><path stroke="#dfe6eb" stroke-linecap="round" d="M1065 183v427"/><text x="1065" y="171" fill="#586b79" font-size="13" font-weight="400" text-anchor="middle">100%</text><path stroke="#dfe6eb" stroke-linecap="round" d="M1110 183v427"/><text x="1110" y="171" fill="#586b79" font-size="13" font-weight="400" text-anchor="middle">150%</text><path stroke="#586b79" stroke-linecap="round" stroke-width="2" d="M975 185v425"/><path stroke="#ecc8ca" stroke-linecap="round" stroke-width="7" d="M975 246h56.364"/><circle cx="1031.364" cy="246" r="7" fill="#c94c50" stroke="#c94c50" stroke-width="2"/><text x="1031.364" y="230" fill="#c94c50" font-size="15" font-weight="600" text-anchor="middle">+62.6%</text><path stroke="#ecc8ca" stroke-linecap="round" stroke-width="7" d="M975 324h118.75"/><circle cx="1093.75" cy="324" r="7" fill="#c94c50" stroke="#c94c50" stroke-width="2"/><text x="1093.75" y="308" fill="#c94c50" font-size="15" font-weight="600" text-anchor="middle">+131.9%</text><path stroke="#ecc8ca" stroke-linecap="round" stroke-width="7" d="M975 402h17.419"/><circle cx="992.419" cy="402" r="7" fill="#c94c50" stroke="#c94c50" stroke-width="2"/><text x="992.419" y="386" fill="#c94c50" font-size="15" font-weight="600" text-anchor="middle">+19.4%</text><path stroke="#ecc8ca" stroke-linecap="round" stroke-width="7" d="M975 480h58.723"/><circle cx="1033.723" cy="480" r="7" fill="#c94c50" stroke="#c94c50" stroke-width="2"/><text x="1033.723" y="464" fill="#c94c50" font-size="15" font-weight="600" text-anchor="middle">+65.2%</text><path stroke="#b9d9cc" stroke-linecap="round" stroke-width="7" d="M975 558h-48.814"/><circle cx="926.186" cy="558" r="7" fill="#15805d" stroke="#15805d" stroke-width="2"/><text x="926.186" y="542" fill="#15805d" font-size="15" font-weight="600" text-anchor="middle">-54.2%</text><text x="44" y="246" fill="#172b3a" font-size="17" font-weight="600">[1] Discover Page</text><text x="44" y="269" fill="#586b79" font-size="15" font-weight="400">(marketplace)</text><text x="44" y="324" fill="#172b3a" font-size="17" font-weight="600">[2] Discover Page</text><text x="44" y="347" fill="#586b79" font-size="15" font-weight="400">(programming category)</text><text x="44" y="402" fill="#172b3a" font-size="17" font-weight="600">[3] Product Page</text><text x="44" y="425" fill="#586b79" font-size="15" font-weight="400">(discover layout)</text><text x="44" y="480" fill="#172b3a" font-size="17" font-weight="600">[4] Product Page</text><text x="44" y="503" fill="#586b79" font-size="15" font-weight="400">(profile layout)</text><text x="44" y="558" fill="#172b3a" font-size="17" font-weight="600">[5] Seller Profile Page</text><text x="44" y="660" fill="#586b79" font-size="16" font-weight="400">Throttled phone · empty browser cache · changes in per-page medians</text><text x="44" y="694" fill="#586b79" font-size="14" font-weight="400">ShakaPerf · September 4, 8 a.m. run · Percentage change = (RORP median / Inertia median − 1) × 100.</text></svg>